<?xml version="1.0" encoding="UTF-8" standalone="no"?>
<svg
   xmlns:dc="http://purl.org/dc/elements/1.1/"
   xmlns:cc="http://creativecommons.org/ns#"
   xmlns:rdf="http://www.w3.org/1999/02/22-rdf-syntax-ns#"
   xmlns:svg="http://www.w3.org/2000/svg"
   xmlns="http://www.w3.org/2000/svg"
   xmlns:sodipodi="http://sodipodi.sourceforge.net/DTD/sodipodi-0.dtd"
   xmlns:inkscape="http://www.inkscape.org/namespaces/inkscape"
   width="24"
   height="24"
   viewBox="0 0 24 24"
   version="1.1"
   id="svg4"
   sodipodi:docname="user.svg"
   inkscape:version="1.0.2-2 (e86c870879, 2021-01-15)">
  <metadata
     id="metadata10">
    <rdf:RDF>
      <cc:Work
         rdf:about="">
        <dc:format>image/svg+xml</dc:format>
        <dc:type
           rdf:resource="http://purl.org/dc/dcmitype/StillImage" />
      </cc:Work>
    </rdf:RDF>
  </metadata>
  <defs
     id="defs8" />
  <sodipodi:namedview
     pagecolor="#ffffff"
     bordercolor="#666666"
     borderopacity="1"
     objecttolerance="10"
     gridtolerance="10"
     guidetolerance="10"
     inkscape:pageopacity="0"
     inkscape:pageshadow="2"
     inkscape:window-width="1604"
     inkscape:window-height="982"
     id="namedview6"
     showgrid="false"
     inkscape:zoom="14.849242"
     inkscape:cx="1.8151138"
     inkscape:cy="3.5457398"
     inkscape:window-x="0"
     inkscape:window-y="0"
     inkscape:window-maximized="0"
     inkscape:current-layer="svg4" />
  <ellipse
     style="fill:#c5c5c5;fill-opacity:1;stroke-width:35.0757;stroke-linecap:round;stroke-opacity:0.98;paint-order:markers stroke fill"
     id="path835"
     cx="11.751441"
     cy="13.435029"
     rx="10.539258"
     ry="8.9903574" />
  <path
     d="M12 0c-6.627 0-12 5.373-12 12s5.373 12 12 12 12-5.373 12-12-5.373-12-12-12zm0 22c-3.123 0-5.914-1.441-7.749-3.69.259-.588.783-.995 1.867-1.246 2.244-.518 4.459-.981 3.393-2.945-3.155-5.82-.899-9.119 2.489-9.119 3.322 0 5.634 3.177 2.489 9.119-1.035 1.952 1.1 2.416 3.393 2.945 1.082.25 1.61.655 1.871 1.241-1.836 2.253-4.628 3.695-7.753 3.695z"
     id="path2"
     style="fill:#6a6a6a;fill-opacity:1" />
</svg>
